<svg width="1138" height="132" viewBox="0 0 1138 132" fill="none" xmlns="http://www.w3.org/2000/svg">
<g opacity="0.07">
<path d="M22.0062 81.7696L16.2061 75.7989L10.406 81.7696L4.49221 75.6852L4.71967 75.5146L10.406 81.3147L16.2061 75.4009L22.0062 81.3147L27.8063 75.4009L33.6063 81.3147L39.3495 75.4009L45.1496 81.3147L50.9497 75.4009L56.7498 81.3147L62.5499 75.4009L68.4637 81.4284L68.2362 81.6559L62.5499 75.7989L56.7498 81.7696L50.9497 75.7989L45.1496 81.7696L39.3495 75.7989L33.6063 81.7696L27.8063 75.7989L22.0062 81.7696Z" fill="#379ECA"/>
<path d="M99.9661 71.8761H99.3974V87.9685H99.9661V71.8761Z" fill="#379ECA"/>
<path d="M109.178 76.8225L91.6071 80.1775V79.6089L109.178 76.2539" fill="#379ECA"/>
<path d="M68.8048 19.5044H68.5205V27.8065H68.8048V19.5044Z" fill="#379ECA"/>
<path d="M72.7853 23.5411H64.4832V23.8255H72.7853V23.5411Z" fill="#379ECA"/>
<path d="M21.4944 0L20.0728 20.6983H37.4162L38.8378 0" fill="#379ECA"/>
<path d="M38.2691 0.56897L36.8476 20.13H20.6415L22.063 0.56897" fill="#379ECA"/>
<path d="M62.095 131.071L60.6165 117.083H43.33L44.7516 131.071" fill="#379ECA"/>
<path d="M45.3202 130.502L43.8986 117.651H60.0479L61.5263 130.502" fill="#379ECA"/>
<path d="M77.2454 106.034L74.4711 103.259L71.6967 106.034L74.4711 108.808L77.2454 106.034Z" fill="#379ECA"/>
<path d="M83.7307 106.027L80.9563 103.253L78.1819 106.027L80.9563 108.801L83.7307 106.027Z" fill="#379ECA"/>
<path d="M90.216 106.019L87.4416 103.245L84.6672 106.019L87.4416 108.794L90.216 106.019Z" fill="#379ECA"/>
<path d="M99.3985 26.0505L102.173 23.2761L99.3985 20.5018L96.6242 23.2761L99.3985 26.0505Z" fill="#379ECA"/>
<path d="M99.4054 32.5495L102.18 29.7751L99.4054 27.0008L96.6311 29.7751L99.4054 32.5495Z" fill="#379ECA"/>
<path d="M99.3723 39.0086L102.147 36.2343L99.3723 33.4599L96.5979 36.2342L99.3723 39.0086Z" fill="#379ECA"/>
<path d="M55.4419 31.9578C54.8164 31.9578 54.3615 31.446 54.3615 30.8774C54.3615 30.2519 54.8733 29.797 55.4419 29.797C56.0674 29.797 56.5223 30.3088 56.5223 30.8774C56.5223 31.5029 56.0106 31.9578 55.4419 31.9578Z" fill="#379ECA"/>
<path d="M55.4419 35.7106C56.0386 35.7106 56.5223 35.2269 56.5223 34.6302C56.5223 34.0335 56.0386 33.5498 55.4419 33.5498C54.8452 33.5498 54.3615 34.0335 54.3615 34.6302C54.3615 35.2269 54.8452 35.7106 55.4419 35.7106Z" fill="#379ECA"/>
<path d="M55.4419 39.464C56.0386 39.464 56.5223 38.9803 56.5223 38.3836C56.5223 37.7869 56.0386 37.3032 55.4419 37.3032C54.8452 37.3032 54.3615 37.7869 54.3615 38.3836C54.3615 38.9803 54.8452 39.464 55.4419 39.464Z" fill="#379ECA"/>
<path d="M55.4419 43.2167C56.0386 43.2167 56.5223 42.733 56.5223 42.1363C56.5223 41.5396 56.0386 41.0559 55.4419 41.0559C54.8452 41.0559 54.3615 41.5396 54.3615 42.1363C54.3615 42.733 54.8452 43.2167 55.4419 43.2167Z" fill="#379ECA"/>
<path d="M55.4419 46.9701C56.0386 46.9701 56.5223 46.4864 56.5223 45.8897C56.5223 45.293 56.0386 44.8093 55.4419 44.8093C54.8452 44.8093 54.3615 45.293 54.3615 45.8897C54.3615 46.4864 54.8452 46.9701 55.4419 46.9701Z" fill="#379ECA"/>
<path d="M55.4419 50.7227C56.0386 50.7227 56.5223 50.239 56.5223 49.6423C56.5223 49.0456 56.0386 48.5619 55.4419 48.5619C54.8452 48.5619 54.3615 49.0456 54.3615 49.6423C54.3615 50.239 54.8452 50.7227 55.4419 50.7227Z" fill="#379ECA"/>
<path d="M80.9168 41.6244L67.0989 57.0913H94.7915L80.9168 41.6244Z" fill="#379ECA"/>
<path d="M80.9168 48.3914L66.7009 64.2563H95.1327L80.9168 48.3914ZM80.9168 48.9031L94.3934 63.972H67.3833L80.9168 48.9031Z" fill="#379ECA"/>
<path d="M41.7947 100.762L30.5357 90.6407V110.827L41.7947 100.762Z" fill="#379ECA"/>
<path d="M36.8476 100.762L25.3043 90.413V111.111L36.8476 100.762ZM36.5064 100.762L25.5317 110.6V90.9247L36.5064 100.762Z" fill="#379ECA"/>
<path d="M34.3456 44.8652H12.5668V23.0864H4.49221V52.9398H34.3456V44.8652ZM5.06085 23.6551H11.9982V45.4338H33.7769V52.3711H5.06085V23.6551Z" fill="#379ECA"/>
<path d="M94.5072 90.4129H82.3384V78.2441H77.7893V94.962H94.5072V90.4129ZM78.1305 78.5853H81.9972V90.7541H94.166V94.6208H78.1305V78.5853Z" fill="#379ECA"/>
<path d="M0 120.551C6.76676 120.551 10.8041 118.39 10.8041 111.623C10.8041 104.856 6.76676 95.9857 0 95.9857" fill="#379ECA"/>
<path d="M0 98.317C5.4589 98.317 8.47266 106.107 8.47266 111.623C8.47266 117.082 5.4589 118.219 0 118.219" fill="#379ECA"/>
<path d="M113.727 95.9857C106.96 95.9857 100.023 104.856 100.023 111.623C100.023 118.39 106.96 120.551 113.727 120.551" fill="#379ECA"/>
<path d="M113.727 118.219C108.268 118.219 102.354 117.139 102.354 111.623C102.354 106.164 108.268 98.317 113.727 98.317" fill="#379ECA"/>
<path d="M53.338 61.3555C53.338 56.6927 49.585 52.9397 44.9222 52.9397C40.2594 52.9397 36.5064 56.6927 36.5064 61.3555C36.5064 66.0183 40.2594 69.7713 44.9222 69.7713C49.5281 69.7713 53.338 66.0183 53.338 61.3555ZM51.6889 61.3555C51.6889 65.1085 48.6183 68.1791 44.8653 68.1791C41.1123 68.1791 38.0417 65.1085 38.0417 61.3555C38.0417 57.6025 41.1123 54.5319 44.8653 54.5319C48.6752 54.5319 51.6889 57.6025 51.6889 61.3555Z" fill="#379ECA"/>
<path d="M47.8791 61.3556C47.8791 63.0046 46.5712 64.3125 44.9222 64.3125C43.2731 64.3125 41.9653 63.0046 41.9653 61.3556C41.9653 59.7065 43.2731 58.3987 44.9222 58.3987C46.5712 58.3987 47.8791 59.7065 47.8791 61.3556Z" fill="#379ECA"/>
<path d="M48.0497 61.3553C48.0497 59.6494 46.6281 58.2278 44.9222 58.2278C43.2163 58.2278 41.7947 59.6494 41.7947 61.3553C41.7947 63.0612 43.2163 64.4828 44.9222 64.4828C46.6281 64.4828 48.0497 63.118 48.0497 61.3553ZM47.7085 61.3553C47.7085 62.8906 46.4575 64.1985 44.8653 64.1985C43.2731 64.1985 42.0221 62.9475 42.0221 61.3553C42.0221 59.82 43.2731 58.5121 44.8653 58.5121C46.4575 58.5121 47.7085 59.82 47.7085 61.3553Z" fill="#379ECA"/>
<path d="M32.4122 32.1845C32.4122 33.5492 31.3318 34.6296 29.9671 34.6296C28.6023 34.6296 27.5219 33.5492 27.5219 32.1845C27.5219 30.8198 28.6023 29.7394 29.9671 29.7394C31.3318 29.7962 32.4122 30.8766 32.4122 32.1845Z" fill="#379ECA"/>
<path d="M82.3952 22.5743C83.2746 22.5743 83.9874 21.8614 83.9874 20.9821C83.9874 20.1027 83.2746 19.3899 82.3952 19.3899C81.5159 19.3899 80.8031 20.1027 80.8031 20.9821C80.8031 21.8614 81.5159 22.5743 82.3952 22.5743Z" fill="#379ECA"/>
<path d="M59.0812 97.8057C59.9605 97.8057 60.6734 97.0929 60.6734 96.2135C60.6734 95.3342 59.9605 94.6213 59.0812 94.6213C58.2019 94.6213 57.489 95.3342 57.489 96.2135C57.489 97.0929 58.2019 97.8057 59.0812 97.8057Z" fill="#379ECA"/>
<path d="M135.733 81.7696L129.933 75.7989L124.133 81.7696L118.219 75.6852L118.447 75.5146L124.133 81.3147L129.933 75.4009L135.733 81.3147L141.533 75.4009L147.333 81.3147L153.077 75.4009L158.877 81.3147L164.677 75.4009L170.477 81.3147L176.277 75.4009L182.191 81.4284L181.963 81.6559L176.277 75.7989L170.477 81.7696L164.677 75.7989L158.877 81.7696L153.077 75.7989L147.333 81.7696L141.533 75.7989L135.733 81.7696Z" fill="#379ECA"/>
<path d="M213.693 71.8761H213.124V87.9685H213.693V71.8761Z" fill="#379ECA"/>
<path d="M222.905 76.8225L205.334 80.1775V79.6089L222.905 76.2539" fill="#379ECA"/>
<path d="M182.532 19.5044H182.248V27.8065H182.532V19.5044Z" fill="#379ECA"/>
<path d="M186.512 23.5411H178.21V23.8255H186.512V23.5411Z" fill="#379ECA"/>
<path d="M135.221 0L133.8 20.6983H151.143L152.565 0" fill="#379ECA"/>
<path d="M151.996 0.56897L150.575 20.13H134.368L135.79 0.56897" fill="#379ECA"/>
<path d="M175.822 131.071L174.344 117.083H157.057L158.479 131.071" fill="#379ECA"/>
<path d="M159.047 130.502L157.626 117.651H173.775L175.253 130.502" fill="#379ECA"/>
<path d="M190.972 106.034L188.198 103.259L185.424 106.034L188.198 108.808L190.972 106.034Z" fill="#379ECA"/>
<path d="M197.458 106.027L194.683 103.253L191.909 106.027L194.683 108.801L197.458 106.027Z" fill="#379ECA"/>
<path d="M203.943 106.019L201.169 103.245L198.394 106.019L201.169 108.794L203.943 106.019Z" fill="#379ECA"/>
<path d="M213.126 26.0505L215.9 23.2761L213.126 20.5018L210.351 23.2761L213.126 26.0505Z" fill="#379ECA"/>
<path d="M213.132 32.5495L215.907 29.7751L213.132 27.0008L210.358 29.7751L213.132 32.5495Z" fill="#379ECA"/>
<path d="M213.099 39.0086L215.874 36.2343L213.099 33.4599L210.325 36.2342L213.099 39.0086Z" fill="#379ECA"/>
<path d="M169.169 31.9578C168.543 31.9578 168.089 31.446 168.089 30.8774C168.089 30.2519 168.6 29.797 169.169 29.797C169.794 29.797 170.249 30.3088 170.249 30.8774C170.249 31.5029 169.738 31.9578 169.169 31.9578Z" fill="#379ECA"/>
<path d="M169.169 35.7106C169.766 35.7106 170.249 35.2269 170.249 34.6302C170.249 34.0335 169.766 33.5498 169.169 33.5498C168.572 33.5498 168.089 34.0335 168.089 34.6302C168.089 35.2269 168.572 35.7106 169.169 35.7106Z" fill="#379ECA"/>
<path d="M169.169 39.464C169.766 39.464 170.249 38.9803 170.249 38.3836C170.249 37.7869 169.766 37.3032 169.169 37.3032C168.572 37.3032 168.089 37.7869 168.089 38.3836C168.089 38.9803 168.572 39.464 169.169 39.464Z" fill="#379ECA"/>
<path d="M169.169 43.2167C169.766 43.2167 170.249 42.733 170.249 42.1363C170.249 41.5396 169.766 41.0559 169.169 41.0559C168.572 41.0559 168.089 41.5396 168.089 42.1363C168.089 42.733 168.572 43.2167 169.169 43.2167Z" fill="#379ECA"/>
<path d="M169.169 46.9701C169.766 46.9701 170.249 46.4864 170.249 45.8897C170.249 45.293 169.766 44.8093 169.169 44.8093C168.572 44.8093 168.089 45.293 168.089 45.8897C168.089 46.4864 168.572 46.9701 169.169 46.9701Z" fill="#379ECA"/>
<path d="M169.169 50.7227C169.766 50.7227 170.249 50.239 170.249 49.6423C170.249 49.0456 169.766 48.5619 169.169 48.5619C168.572 48.5619 168.089 49.0456 168.089 49.6423C168.089 50.239 168.572 50.7227 169.169 50.7227Z" fill="#379ECA"/>
<path d="M194.644 41.6244L180.826 57.0913H208.519L194.644 41.6244Z" fill="#379ECA"/>
<path d="M194.644 48.3914L180.428 64.2563H208.86L194.644 48.3914ZM194.644 48.9031L208.12 63.972H181.11L194.644 48.9031Z" fill="#379ECA"/>
<path d="M155.522 100.762L144.263 90.6407V110.827L155.522 100.762Z" fill="#379ECA"/>
<path d="M150.575 100.762L139.031 90.413V111.111L150.575 100.762ZM150.233 100.762L139.259 110.6V90.9247L150.233 100.762Z" fill="#379ECA"/>
<path d="M148.073 44.8652H126.294V23.0864H118.219V52.9398H148.073V44.8652ZM118.788 23.6551H125.725V45.4338H147.504V52.3711H118.788V23.6551Z" fill="#379ECA"/>
<path d="M208.234 90.4129H196.065V78.2441H191.516V94.962H208.234V90.4129ZM191.857 78.5853H195.724V90.7541H207.893V94.6208H191.857V78.5853Z" fill="#379ECA"/>
<path d="M113.727 120.551C120.494 120.551 124.531 118.39 124.531 111.623C124.531 104.856 120.494 95.9857 113.727 95.9857" fill="#379ECA"/>
<path d="M113.727 98.317C119.186 98.317 122.2 106.107 122.2 111.623C122.2 117.082 119.186 118.219 113.727 118.219" fill="#379ECA"/>
<path d="M227.454 95.9857C220.687 95.9857 213.75 104.856 213.75 111.623C213.75 118.39 220.687 120.551 227.454 120.551" fill="#379ECA"/>
<path d="M227.454 118.219C221.995 118.219 216.081 117.139 216.081 111.623C216.081 106.164 221.995 98.317 227.454 98.317" fill="#379ECA"/>
<path d="M167.065 61.3555C167.065 56.6927 163.312 52.9397 158.649 52.9397C153.986 52.9397 150.233 56.6927 150.233 61.3555C150.233 66.0183 153.986 69.7713 158.649 69.7713C163.255 69.7713 167.065 66.0183 167.065 61.3555ZM165.416 61.3555C165.416 65.1085 162.345 68.1791 158.592 68.1791C154.839 68.1791 151.769 65.1085 151.769 61.3555C151.769 57.6025 154.839 54.5319 158.592 54.5319C162.402 54.5319 165.416 57.6025 165.416 61.3555Z" fill="#379ECA"/>
<path d="M161.606 61.3556C161.606 63.0046 160.298 64.3125 158.649 64.3125C157 64.3125 155.692 63.0046 155.692 61.3556C155.692 59.7065 157 58.3987 158.649 58.3987C160.298 58.3987 161.606 59.7065 161.606 61.3556Z" fill="#379ECA"/>
<path d="M161.777 61.3553C161.777 59.6494 160.355 58.2278 158.649 58.2278C156.943 58.2278 155.522 59.6494 155.522 61.3553C155.522 63.0612 156.943 64.4828 158.649 64.4828C160.355 64.4828 161.777 63.118 161.777 61.3553ZM161.436 61.3553C161.436 62.8906 160.185 64.1985 158.592 64.1985C157 64.1985 155.749 62.9475 155.749 61.3553C155.749 59.82 157 58.5121 158.592 58.5121C160.185 58.5121 161.436 59.82 161.436 61.3553Z" fill="#379ECA"/>
<path d="M146.139 32.1845C146.139 33.5492 145.059 34.6296 143.694 34.6296C142.329 34.6296 141.249 33.5492 141.249 32.1845C141.249 30.8198 142.329 29.7394 143.694 29.7394C145.059 29.7962 146.139 30.8766 146.139 32.1845Z" fill="#379ECA"/>
<path d="M196.122 22.5743C197.002 22.5743 197.714 21.8614 197.714 20.9821C197.714 20.1027 197.002 19.3899 196.122 19.3899C195.243 19.3899 194.53 20.1027 194.53 20.9821C194.53 21.8614 195.243 22.5743 196.122 22.5743Z" fill="#379ECA"/>
<path d="M172.808 97.8057C173.688 97.8057 174.4 97.0929 174.4 96.2135C174.4 95.3342 173.688 94.6213 172.808 94.6213C171.929 94.6213 171.216 95.3342 171.216 96.2135C171.216 97.0929 171.929 97.8057 172.808 97.8057Z" fill="#379ECA"/>
<path d="M249.46 81.7696L243.66 75.7989L237.86 81.7696L231.946 75.6852L232.174 75.5146L237.86 81.3147L243.66 75.4009L249.46 81.3147L255.26 75.4009L261.06 81.3147L266.804 75.4009L272.604 81.3147L278.404 75.4009L284.204 81.3147L290.004 75.4009L295.918 81.4284L295.69 81.6559L290.004 75.7989L284.204 81.7696L278.404 75.7989L272.604 81.7696L266.804 75.7989L261.06 81.7696L255.26 75.7989L249.46 81.7696Z" fill="#379ECA"/>
<path d="M327.42 71.8761H326.851V87.9685H327.42V71.8761Z" fill="#379ECA"/>
<path d="M336.632 76.8225L319.061 80.1775V79.6089L336.632 76.2539" fill="#379ECA"/>
<path d="M296.259 19.5044H295.975V27.8065H296.259V19.5044Z" fill="#379ECA"/>
<path d="M300.239 23.5411H291.937V23.8255H300.239V23.5411Z" fill="#379ECA"/>
<path d="M248.948 0L247.527 20.6983H264.87L266.292 0" fill="#379ECA"/>
<path d="M265.723 0.56897L264.302 20.13H248.096L249.517 0.56897" fill="#379ECA"/>
<path d="M289.549 131.071L288.071 117.083H270.784L272.206 131.071" fill="#379ECA"/>
<path d="M272.774 130.502L271.353 117.651H287.502L288.98 130.502" fill="#379ECA"/>
<path d="M304.699 106.034L301.925 103.259L299.151 106.034L301.925 108.808L304.699 106.034Z" fill="#379ECA"/>
<path d="M311.185 106.027L308.41 103.253L305.636 106.027L308.41 108.801L311.185 106.027Z" fill="#379ECA"/>
<path d="M317.67 106.019L314.896 103.245L312.121 106.019L314.896 108.794L317.67 106.019Z" fill="#379ECA"/>
<path d="M326.853 26.0505L329.627 23.2761L326.853 20.5018L324.078 23.2761L326.853 26.0505Z" fill="#379ECA"/>
<path d="M326.859 32.5495L329.634 29.7751L326.859 27.0008L324.085 29.7751L326.859 32.5495Z" fill="#379ECA"/>
<path d="M326.826 39.0086L329.601 36.2343L326.826 33.4599L324.052 36.2342L326.826 39.0086Z" fill="#379ECA"/>
<path d="M282.896 31.9578C282.27 31.9578 281.816 31.446 281.816 30.8774C281.816 30.2519 282.327 29.797 282.896 29.797C283.521 29.797 283.976 30.3088 283.976 30.8774C283.976 31.5029 283.465 31.9578 282.896 31.9578Z" fill="#379ECA"/>
<path d="M282.896 35.7106C283.493 35.7106 283.976 35.2269 283.976 34.6302C283.976 34.0335 283.493 33.5498 282.896 33.5498C282.299 33.5498 281.816 34.0335 281.816 34.6302C281.816 35.2269 282.299 35.7106 282.896 35.7106Z" fill="#379ECA"/>
<path d="M282.896 39.464C283.493 39.464 283.976 38.9803 283.976 38.3836C283.976 37.7869 283.493 37.3032 282.896 37.3032C282.299 37.3032 281.816 37.7869 281.816 38.3836C281.816 38.9803 282.299 39.464 282.896 39.464Z" fill="#379ECA"/>
<path d="M282.896 43.2167C283.493 43.2167 283.976 42.733 283.976 42.1363C283.976 41.5396 283.493 41.0559 282.896 41.0559C282.299 41.0559 281.816 41.5396 281.816 42.1363C281.816 42.733 282.299 43.2167 282.896 43.2167Z" fill="#379ECA"/>
<path d="M282.896 46.9701C283.493 46.9701 283.976 46.4864 283.976 45.8897C283.976 45.293 283.493 44.8093 282.896 44.8093C282.299 44.8093 281.816 45.293 281.816 45.8897C281.816 46.4864 282.299 46.9701 282.896 46.9701Z" fill="#379ECA"/>
<path d="M282.896 50.7227C283.493 50.7227 283.976 50.239 283.976 49.6423C283.976 49.0456 283.493 48.5619 282.896 48.5619C282.299 48.5619 281.816 49.0456 281.816 49.6423C281.816 50.239 282.299 50.7227 282.896 50.7227Z" fill="#379ECA"/>
<path d="M308.371 41.6244L294.553 57.0913H322.246L308.371 41.6244Z" fill="#379ECA"/>
<path d="M308.371 48.3914L294.155 64.2563H322.587L308.371 48.3914ZM308.371 48.9031L321.847 63.972H294.837L308.371 48.9031Z" fill="#379ECA"/>
<path d="M269.249 100.762L257.99 90.6407V110.827L269.249 100.762Z" fill="#379ECA"/>
<path d="M264.302 100.762L252.758 90.413V111.111L264.302 100.762ZM263.96 100.762L252.986 110.6V90.9247L263.96 100.762Z" fill="#379ECA"/>
<path d="M261.8 44.8652H240.021V23.0864H231.946V52.9398H261.8V44.8652ZM232.515 23.6551H239.452V45.4338H261.231V52.3711H232.515V23.6551Z" fill="#379ECA"/>
<path d="M321.961 90.4129H309.792V78.2441H305.243V94.962H321.961V90.4129ZM305.585 78.5853H309.451V90.7541H321.62V94.6208H305.585V78.5853Z" fill="#379ECA"/>
<path d="M227.454 120.551C234.221 120.551 238.258 118.39 238.258 111.623C238.258 104.856 234.221 95.9857 227.454 95.9857" fill="#379ECA"/>
<path d="M227.454 98.317C232.913 98.317 235.927 106.107 235.927 111.623C235.927 117.082 232.913 118.219 227.454 118.219" fill="#379ECA"/>
<path d="M341.181 95.9857C334.414 95.9857 327.477 104.856 327.477 111.623C327.477 118.39 334.414 120.551 341.181 120.551" fill="#379ECA"/>
<path d="M341.181 118.219C335.722 118.219 329.808 117.139 329.808 111.623C329.808 106.164 335.722 98.317 341.181 98.317" fill="#379ECA"/>
<path d="M280.792 61.3555C280.792 56.6927 277.039 52.9397 272.376 52.9397C267.713 52.9397 263.96 56.6927 263.96 61.3555C263.96 66.0183 267.713 69.7713 272.376 69.7713C276.982 69.7713 280.792 66.0183 280.792 61.3555ZM279.143 61.3555C279.143 65.1085 276.072 68.1791 272.319 68.1791C268.566 68.1791 265.496 65.1085 265.496 61.3555C265.496 57.6025 268.566 54.5319 272.319 54.5319C276.129 54.5319 279.143 57.6025 279.143 61.3555Z" fill="#379ECA"/>
<path d="M275.333 61.3556C275.333 63.0046 274.025 64.3125 272.376 64.3125C270.727 64.3125 269.419 63.0046 269.419 61.3556C269.419 59.7065 270.727 58.3987 272.376 58.3987C274.025 58.3987 275.333 59.7065 275.333 61.3556Z" fill="#379ECA"/>
<path d="M275.504 61.3553C275.504 59.6494 274.082 58.2278 272.376 58.2278C270.67 58.2278 269.249 59.6494 269.249 61.3553C269.249 63.0612 270.67 64.4828 272.376 64.4828C274.082 64.4828 275.504 63.118 275.504 61.3553ZM275.163 61.3553C275.163 62.8906 273.912 64.1985 272.319 64.1985C270.727 64.1985 269.476 62.9475 269.476 61.3553C269.476 59.82 270.727 58.5121 272.319 58.5121C273.912 58.5121 275.163 59.82 275.163 61.3553Z" fill="#379ECA"/>
<path d="M259.866 32.1845C259.866 33.5492 258.786 34.6296 257.421 34.6296C256.056 34.6296 254.976 33.5492 254.976 32.1845C254.976 30.8198 256.056 29.7394 257.421 29.7394C258.786 29.7962 259.866 30.8766 259.866 32.1845Z" fill="#379ECA"/>
<path d="M309.849 22.5743C310.729 22.5743 311.441 21.8614 311.441 20.9821C311.441 20.1027 310.729 19.3899 309.849 19.3899C308.97 19.3899 308.257 20.1027 308.257 20.9821C308.257 21.8614 308.97 22.5743 309.849 22.5743Z" fill="#379ECA"/>
<path d="M286.535 97.8057C287.415 97.8057 288.127 97.0929 288.127 96.2135C288.127 95.3342 287.415 94.6213 286.535 94.6213C285.656 94.6213 284.943 95.3342 284.943 96.2135C284.943 97.0929 285.656 97.8057 286.535 97.8057Z" fill="#379ECA"/>
<path d="M363.187 81.7696L357.387 75.7989L351.587 81.7696L345.673 75.6852L345.901 75.5146L351.587 81.3147L357.387 75.4009L363.187 81.3147L368.987 75.4009L374.787 81.3147L380.531 75.4009L386.331 81.3147L392.131 75.4009L397.931 81.3147L403.731 75.4009L409.645 81.4284L409.417 81.6559L403.731 75.7989L397.931 81.7696L392.131 75.7989L386.331 81.7696L380.531 75.7989L374.787 81.7696L368.987 75.7989L363.187 81.7696Z" fill="#379ECA"/>
<path d="M441.147 71.8761H440.578V87.9685H441.147V71.8761Z" fill="#379ECA"/>
<path d="M450.359 76.8225L432.788 80.1775V79.6089L450.359 76.2539" fill="#379ECA"/>
<path d="M409.986 19.5044H409.702V27.8065H409.986V19.5044Z" fill="#379ECA"/>
<path d="M413.966 23.5411H405.664V23.8255H413.966V23.5411Z" fill="#379ECA"/>
<path d="M362.675 0L361.254 20.6983H378.597L380.019 0" fill="#379ECA"/>
<path d="M379.45 0.56897L378.029 20.13H361.823L363.244 0.56897" fill="#379ECA"/>
<path d="M403.276 131.071L401.798 117.083H384.511L385.933 131.071" fill="#379ECA"/>
<path d="M386.501 130.502L385.08 117.651H401.229L402.707 130.502" fill="#379ECA"/>
<path d="M418.427 106.034L415.652 103.259L412.878 106.034L415.652 108.808L418.427 106.034Z" fill="#379ECA"/>
<path d="M424.912 106.027L422.137 103.253L419.363 106.027L422.137 108.801L424.912 106.027Z" fill="#379ECA"/>
<path d="M431.397 106.019L428.623 103.245L425.848 106.019L428.623 108.794L431.397 106.019Z" fill="#379ECA"/>
<path d="M440.58 26.0505L443.354 23.2761L440.58 20.5018L437.805 23.2761L440.58 26.0505Z" fill="#379ECA"/>
<path d="M440.587 32.5495L443.361 29.7751L440.587 27.0008L437.812 29.7751L440.587 32.5495Z" fill="#379ECA"/>
<path d="M440.553 39.0086L443.328 36.2343L440.553 33.4599L437.779 36.2342L440.553 39.0086Z" fill="#379ECA"/>
<path d="M396.623 31.9578C395.998 31.9578 395.543 31.446 395.543 30.8774C395.543 30.2519 396.054 29.797 396.623 29.797C397.249 29.797 397.703 30.3088 397.703 30.8774C397.703 31.5029 397.192 31.9578 396.623 31.9578Z" fill="#379ECA"/>
<path d="M396.623 35.7106C397.22 35.7106 397.703 35.2269 397.703 34.6302C397.703 34.0335 397.22 33.5498 396.623 33.5498C396.026 33.5498 395.543 34.0335 395.543 34.6302C395.543 35.2269 396.026 35.7106 396.623 35.7106Z" fill="#379ECA"/>
<path d="M396.623 39.464C397.22 39.464 397.703 38.9803 397.703 38.3836C397.703 37.7869 397.22 37.3032 396.623 37.3032C396.026 37.3032 395.543 37.7869 395.543 38.3836C395.543 38.9803 396.026 39.464 396.623 39.464Z" fill="#379ECA"/>
<path d="M396.623 43.2167C397.22 43.2167 397.703 42.733 397.703 42.1363C397.703 41.5396 397.22 41.0559 396.623 41.0559C396.026 41.0559 395.543 41.5396 395.543 42.1363C395.543 42.733 396.026 43.2167 396.623 43.2167Z" fill="#379ECA"/>
<path d="M396.623 46.9701C397.22 46.9701 397.703 46.4864 397.703 45.8897C397.703 45.293 397.22 44.8093 396.623 44.8093C396.026 44.8093 395.543 45.293 395.543 45.8897C395.543 46.4864 396.026 46.9701 396.623 46.9701Z" fill="#379ECA"/>
<path d="M396.623 50.7227C397.22 50.7227 397.703 50.239 397.703 49.6423C397.703 49.0456 397.22 48.5619 396.623 48.5619C396.026 48.5619 395.543 49.0456 395.543 49.6423C395.543 50.239 396.026 50.7227 396.623 50.7227Z" fill="#379ECA"/>
<path d="M422.098 41.6244L408.28 57.0913H435.973L422.098 41.6244Z" fill="#379ECA"/>
<path d="M422.098 48.3914L407.882 64.2563H436.314L422.098 48.3914ZM422.098 48.9031L435.575 63.972H408.564L422.098 48.9031Z" fill="#379ECA"/>
<path d="M382.976 100.762L371.717 90.6407V110.827L382.976 100.762Z" fill="#379ECA"/>
<path d="M378.029 100.762L366.485 90.413V111.111L378.029 100.762ZM377.687 100.762L366.713 110.6V90.9247L377.687 100.762Z" fill="#379ECA"/>
<path d="M375.527 44.8652H353.748V23.0864H345.673V52.9398H375.527V44.8652ZM346.242 23.6551H353.179V45.4338H374.958V52.3711H346.242V23.6551Z" fill="#379ECA"/>
<path d="M435.688 90.4129H423.519V78.2441H418.97V94.962H435.688V90.4129ZM419.312 78.5853H423.178V90.7541H435.347V94.6208H419.312V78.5853Z" fill="#379ECA"/>
<path d="M341.181 120.551C347.948 120.551 351.985 118.39 351.985 111.623C351.985 104.856 347.948 95.9857 341.181 95.9857" fill="#379ECA"/>
<path d="M341.181 98.317C346.64 98.317 349.654 106.107 349.654 111.623C349.654 117.082 346.64 118.219 341.181 118.219" fill="#379ECA"/>
<path d="M454.908 95.9857C448.141 95.9857 441.204 104.856 441.204 111.623C441.204 118.39 448.141 120.551 454.908 120.551" fill="#379ECA"/>
<path d="M454.908 118.219C449.449 118.219 443.535 117.139 443.535 111.623C443.535 106.164 449.449 98.317 454.908 98.317" fill="#379ECA"/>
<path d="M394.519 61.3555C394.519 56.6927 390.766 52.9397 386.103 52.9397C381.44 52.9397 377.687 56.6927 377.687 61.3555C377.687 66.0183 381.44 69.7713 386.103 69.7713C390.709 69.7713 394.519 66.0183 394.519 61.3555ZM392.87 61.3555C392.87 65.1085 389.799 68.1791 386.046 68.1791C382.293 68.1791 379.223 65.1085 379.223 61.3555C379.223 57.6025 382.293 54.5319 386.046 54.5319C389.856 54.5319 392.87 57.6025 392.87 61.3555Z" fill="#379ECA"/>
<path d="M389.06 61.3556C389.06 63.0046 387.752 64.3125 386.103 64.3125C384.454 64.3125 383.146 63.0046 383.146 61.3556C383.146 59.7065 384.454 58.3987 386.103 58.3987C387.752 58.3987 389.06 59.7065 389.06 61.3556Z" fill="#379ECA"/>
<path d="M389.231 61.3553C389.231 59.6494 387.809 58.2278 386.103 58.2278C384.397 58.2278 382.976 59.6494 382.976 61.3553C382.976 63.0612 384.397 64.4828 386.103 64.4828C387.809 64.4828 389.231 63.118 389.231 61.3553ZM388.89 61.3553C388.89 62.8906 387.639 64.1985 386.046 64.1985C384.454 64.1985 383.203 62.9475 383.203 61.3553C383.203 59.82 384.454 58.5121 386.046 58.5121C387.639 58.5121 388.89 59.82 388.89 61.3553Z" fill="#379ECA"/>
<path d="M373.593 32.1845C373.593 33.5492 372.513 34.6296 371.148 34.6296C369.783 34.6296 368.703 33.5492 368.703 32.1845C368.703 30.8198 369.783 29.7394 371.148 29.7394C372.513 29.7962 373.593 30.8766 373.593 32.1845Z" fill="#379ECA"/>
<path d="M423.576 22.5743C424.456 22.5743 425.168 21.8614 425.168 20.9821C425.168 20.1027 424.456 19.3899 423.576 19.3899C422.697 19.3899 421.984 20.1027 421.984 20.9821C421.984 21.8614 422.697 22.5743 423.576 22.5743Z" fill="#379ECA"/>
<path d="M400.262 97.8057C401.142 97.8057 401.854 97.0929 401.854 96.2135C401.854 95.3342 401.142 94.6213 400.262 94.6213C399.383 94.6213 398.67 95.3342 398.67 96.2135C398.67 97.0929 399.383 97.8057 400.262 97.8057Z" fill="#379ECA"/>
<path d="M476.914 81.7696L471.114 75.7989L465.314 81.7696L459.4 75.6852L459.628 75.5146L465.314 81.3147L471.114 75.4009L476.914 81.3147L482.714 75.4009L488.514 81.3147L494.258 75.4009L500.058 81.3147L505.858 75.4009L511.658 81.3147L517.458 75.4009L523.372 81.4284L523.144 81.6559L517.458 75.7989L511.658 81.7696L505.858 75.7989L500.058 81.7696L494.258 75.7989L488.514 81.7696L482.714 75.7989L476.914 81.7696Z" fill="#379ECA"/>
<path d="M554.874 71.8761H554.306V87.9685H554.874V71.8761Z" fill="#379ECA"/>
<path d="M564.086 76.8225L546.515 80.1775V79.6089L564.086 76.2539" fill="#379ECA"/>
<path d="M523.713 19.5044H523.429V27.8065H523.713V19.5044Z" fill="#379ECA"/>
<path d="M527.693 23.5411H519.391V23.8255H527.693V23.5411Z" fill="#379ECA"/>
<path d="M476.403 0L474.981 20.6983H492.324L493.746 0" fill="#379ECA"/>
<path d="M493.177 0.56897L491.756 20.13H475.55L476.971 0.56897" fill="#379ECA"/>
<path d="M517.003 131.071L515.525 117.083H498.238L499.66 131.071" fill="#379ECA"/>
<path d="M500.228 130.502L498.807 117.651H514.956L516.434 130.502" fill="#379ECA"/>
<path d="M532.154 106.034L529.379 103.259L526.605 106.034L529.379 108.808L532.154 106.034Z" fill="#379ECA"/>
<path d="M538.639 106.027L535.864 103.253L533.09 106.027L535.864 108.801L538.639 106.027Z" fill="#379ECA"/>
<path d="M545.124 106.019L542.35 103.245L539.575 106.019L542.35 108.794L545.124 106.019Z" fill="#379ECA"/>
<path d="M554.307 26.0505L557.081 23.2761L554.307 20.5018L551.532 23.2761L554.307 26.0505Z" fill="#379ECA"/>
<path d="M554.314 32.5495L557.088 29.7751L554.314 27.0008L551.539 29.7751L554.314 32.5495Z" fill="#379ECA"/>
<path d="M554.28 39.0086L557.055 36.2343L554.28 33.4599L551.506 36.2342L554.28 39.0086Z" fill="#379ECA"/>
<path d="M510.35 31.9578C509.725 31.9578 509.27 31.446 509.27 30.8774C509.27 30.2519 509.781 29.797 510.35 29.797C510.976 29.797 511.43 30.3088 511.43 30.8774C511.43 31.5029 510.919 31.9578 510.35 31.9578Z" fill="#379ECA"/>
<path d="M510.35 35.7106C510.947 35.7106 511.43 35.2269 511.43 34.6302C511.43 34.0335 510.947 33.5498 510.35 33.5498C509.753 33.5498 509.27 34.0335 509.27 34.6302C509.27 35.2269 509.753 35.7106 510.35 35.7106Z" fill="#379ECA"/>
<path d="M510.35 39.464C510.947 39.464 511.43 38.9803 511.43 38.3836C511.43 37.7869 510.947 37.3032 510.35 37.3032C509.753 37.3032 509.27 37.7869 509.27 38.3836C509.27 38.9803 509.753 39.464 510.35 39.464Z" fill="#379ECA"/>
<path d="M510.35 43.2167C510.947 43.2167 511.43 42.733 511.43 42.1363C511.43 41.5396 510.947 41.0559 510.35 41.0559C509.753 41.0559 509.27 41.5396 509.27 42.1363C509.27 42.733 509.753 43.2167 510.35 43.2167Z" fill="#379ECA"/>
<path d="M510.35 46.9701C510.947 46.9701 511.43 46.4864 511.43 45.8897C511.43 45.293 510.947 44.8093 510.35 44.8093C509.753 44.8093 509.27 45.293 509.27 45.8897C509.27 46.4864 509.753 46.9701 510.35 46.9701Z" fill="#379ECA"/>
<path d="M510.35 50.7227C510.947 50.7227 511.43 50.239 511.43 49.6423C511.43 49.0456 510.947 48.5619 510.35 48.5619C509.753 48.5619 509.27 49.0456 509.27 49.6423C509.27 50.239 509.753 50.7227 510.35 50.7227Z" fill="#379ECA"/>
<path d="M535.825 41.6244L522.007 57.0913H549.7L535.825 41.6244Z" fill="#379ECA"/>
<path d="M535.825 48.3914L521.609 64.2563H550.041L535.825 48.3914ZM535.825 48.9031L549.302 63.972H522.291L535.825 48.9031Z" fill="#379ECA"/>
<path d="M496.703 100.762L485.444 90.6407V110.827L496.703 100.762Z" fill="#379ECA"/>
<path d="M491.756 100.762L480.212 90.413V111.111L491.756 100.762ZM491.415 100.762L480.44 110.6V90.9247L491.415 100.762Z" fill="#379ECA"/>
<path d="M489.254 44.8652H467.475V23.0864H459.4V52.9398H489.254V44.8652ZM459.969 23.6551H466.906V45.4338H488.685V52.3711H459.969V23.6551Z" fill="#379ECA"/>
<path d="M549.415 90.4129H537.246V78.2441H532.697V94.962H549.415V90.4129ZM533.039 78.5853H536.905V90.7541H549.074V94.6208H533.039V78.5853Z" fill="#379ECA"/>
<path d="M454.908 120.551C461.675 120.551 465.712 118.39 465.712 111.623C465.712 104.856 461.675 95.9857 454.908 95.9857" fill="#379ECA"/>
<path d="M454.908 98.317C460.367 98.317 463.381 106.107 463.381 111.623C463.381 117.082 460.367 118.219 454.908 118.219" fill="#379ECA"/>
<path d="M568.635 95.9857C561.868 95.9857 554.931 104.856 554.931 111.623C554.931 118.39 561.868 120.551 568.635 120.551" fill="#379ECA"/>
<path d="M568.635 118.219C563.176 118.219 557.262 117.139 557.262 111.623C557.262 106.164 563.176 98.317 568.635 98.317" fill="#379ECA"/>
<path d="M508.246 61.3555C508.246 56.6927 504.493 52.9397 499.83 52.9397C495.168 52.9397 491.415 56.6927 491.415 61.3555C491.415 66.0183 495.168 69.7713 499.83 69.7713C504.436 69.7713 508.246 66.0183 508.246 61.3555ZM506.597 61.3555C506.597 65.1085 503.526 68.1791 499.773 68.1791C496.02 68.1791 492.95 65.1085 492.95 61.3555C492.95 57.6025 496.02 54.5319 499.773 54.5319C503.583 54.5319 506.597 57.6025 506.597 61.3555Z" fill="#379ECA"/>
<path d="M502.787 61.3556C502.787 63.0046 501.479 64.3125 499.83 64.3125C498.181 64.3125 496.873 63.0046 496.873 61.3556C496.873 59.7065 498.181 58.3987 499.83 58.3987C501.479 58.3987 502.787 59.7065 502.787 61.3556Z" fill="#379ECA"/>
<path d="M502.958 61.3553C502.958 59.6494 501.536 58.2278 499.83 58.2278C498.124 58.2278 496.703 59.6494 496.703 61.3553C496.703 63.0612 498.124 64.4828 499.83 64.4828C501.536 64.4828 502.958 63.118 502.958 61.3553ZM502.617 61.3553C502.617 62.8906 501.366 64.1985 499.773 64.1985C498.181 64.1985 496.93 62.9475 496.93 61.3553C496.93 59.82 498.181 58.5121 499.773 58.5121C501.366 58.5121 502.617 59.82 502.617 61.3553Z" fill="#379ECA"/>
<path d="M487.32 32.1845C487.32 33.5492 486.24 34.6296 484.875 34.6296C483.51 34.6296 482.43 33.5492 482.43 32.1845C482.43 30.8198 483.51 29.7394 484.875 29.7394C486.24 29.7962 487.32 30.8766 487.32 32.1845Z" fill="#379ECA"/>
<path d="M537.303 22.5743C538.183 22.5743 538.896 21.8614 538.896 20.9821C538.896 20.1027 538.183 19.3899 537.303 19.3899C536.424 19.3899 535.711 20.1027 535.711 20.9821C535.711 21.8614 536.424 22.5743 537.303 22.5743Z" fill="#379ECA"/>
<path d="M513.989 97.8057C514.869 97.8057 515.582 97.0929 515.582 96.2135C515.582 95.3342 514.869 94.6213 513.989 94.6213C513.11 94.6213 512.397 95.3342 512.397 96.2135C512.397 97.0929 513.11 97.8057 513.989 97.8057Z" fill="#379ECA"/>
<path d="M590.641 81.7696L584.841 75.7989L579.041 81.7696L573.127 75.6852L573.355 75.5146L579.041 81.3147L584.841 75.4009L590.641 81.3147L596.441 75.4009L602.241 81.3147L607.985 75.4009L613.785 81.3147L619.585 75.4009L625.385 81.3147L631.185 75.4009L637.099 81.4284L636.871 81.6559L631.185 75.7989L625.385 81.7696L619.585 75.7989L613.785 81.7696L607.985 75.7989L602.241 81.7696L596.441 75.7989L590.641 81.7696Z" fill="#379ECA"/>
<path d="M668.601 71.8761H668.033V87.9685H668.601V71.8761Z" fill="#379ECA"/>
<path d="M677.813 76.8225L660.242 80.1775V79.6089L677.813 76.2539" fill="#379ECA"/>
<path d="M637.44 19.5044H637.156V27.8065H637.44V19.5044Z" fill="#379ECA"/>
<path d="M641.42 23.5411H633.118V23.8255H641.42V23.5411Z" fill="#379ECA"/>
<path d="M590.13 0L588.708 20.6983H606.051L607.473 0" fill="#379ECA"/>
<path d="M606.904 0.56897L605.483 20.13H589.277L590.698 0.56897" fill="#379ECA"/>
<path d="M630.73 131.071L629.252 117.083H611.965L613.387 131.071" fill="#379ECA"/>
<path d="M613.955 130.502L612.534 117.651H628.683L630.161 130.502" fill="#379ECA"/>
<path d="M645.881 106.034L643.106 103.259L640.332 106.034L643.106 108.808L645.881 106.034Z" fill="#379ECA"/>
<path d="M652.366 106.027L649.591 103.253L646.817 106.027L649.591 108.801L652.366 106.027Z" fill="#379ECA"/>
<path d="M658.851 106.019L656.077 103.245L653.302 106.019L656.077 108.794L658.851 106.019Z" fill="#379ECA"/>
<path d="M668.034 26.0505L670.808 23.2761L668.034 20.5018L665.259 23.2761L668.034 26.0505Z" fill="#379ECA"/>
<path d="M668.041 32.5495L670.815 29.7751L668.041 27.0008L665.266 29.7751L668.041 32.5495Z" fill="#379ECA"/>
<path d="M668.007 39.0086L670.782 36.2343L668.007 33.4599L665.233 36.2342L668.007 39.0086Z" fill="#379ECA"/>
<path d="M624.077 31.9578C623.452 31.9578 622.997 31.446 622.997 30.8774C622.997 30.2519 623.508 29.797 624.077 29.797C624.703 29.797 625.157 30.3088 625.157 30.8774C625.157 31.5029 624.646 31.9578 624.077 31.9578Z" fill="#379ECA"/>
<path d="M624.077 35.7106C624.674 35.7106 625.157 35.2269 625.157 34.6302C625.157 34.0335 624.674 33.5498 624.077 33.5498C623.48 33.5498 622.997 34.0335 622.997 34.6302C622.997 35.2269 623.48 35.7106 624.077 35.7106Z" fill="#379ECA"/>
<path d="M624.077 39.464C624.674 39.464 625.157 38.9803 625.157 38.3836C625.157 37.7869 624.674 37.3032 624.077 37.3032C623.48 37.3032 622.997 37.7869 622.997 38.3836C622.997 38.9803 623.48 39.464 624.077 39.464Z" fill="#379ECA"/>
<path d="M624.077 43.2167C624.674 43.2167 625.157 42.733 625.157 42.1363C625.157 41.5396 624.674 41.0559 624.077 41.0559C623.48 41.0559 622.997 41.5396 622.997 42.1363C622.997 42.733 623.48 43.2167 624.077 43.2167Z" fill="#379ECA"/>
<path d="M624.077 46.9701C624.674 46.9701 625.157 46.4864 625.157 45.8897C625.157 45.293 624.674 44.8093 624.077 44.8093C623.48 44.8093 622.997 45.293 622.997 45.8897C622.997 46.4864 623.48 46.9701 624.077 46.9701Z" fill="#379ECA"/>
<path d="M624.077 50.7227C624.674 50.7227 625.157 50.239 625.157 49.6423C625.157 49.0456 624.674 48.5619 624.077 48.5619C623.48 48.5619 622.997 49.0456 622.997 49.6423C622.997 50.239 623.48 50.7227 624.077 50.7227Z" fill="#379ECA"/>
<path d="M649.552 41.6244L635.734 57.0913H663.427L649.552 41.6244Z" fill="#379ECA"/>
<path d="M649.552 48.3914L635.336 64.2563H663.768L649.552 48.3914ZM649.552 48.9031L663.029 63.972H636.018L649.552 48.9031Z" fill="#379ECA"/>
<path d="M610.43 100.762L599.171 90.6407V110.827L610.43 100.762Z" fill="#379ECA"/>
<path d="M605.483 100.762L593.939 90.413V111.111L605.483 100.762ZM605.142 100.762L594.167 110.6V90.9247L605.142 100.762Z" fill="#379ECA"/>
<path d="M602.981 44.8652H581.202V23.0864H573.127V52.9398H602.981V44.8652ZM573.696 23.6551H580.633V45.4338H602.412V52.3711H573.696V23.6551Z" fill="#379ECA"/>
<path d="M663.142 90.4129H650.974V78.2441H646.424V94.962H663.142V90.4129ZM646.766 78.5853H650.632V90.7541H662.801V94.6208H646.766V78.5853Z" fill="#379ECA"/>
<path d="M568.635 120.551C575.402 120.551 579.439 118.39 579.439 111.623C579.439 104.856 575.402 95.9857 568.635 95.9857" fill="#379ECA"/>
<path d="M568.635 98.317C574.094 98.317 577.108 106.107 577.108 111.623C577.108 117.082 574.094 118.219 568.635 118.219" fill="#379ECA"/>
<path d="M682.362 95.9857C675.595 95.9857 668.658 104.856 668.658 111.623C668.658 118.39 675.595 120.551 682.362 120.551" fill="#379ECA"/>
<path d="M682.362 118.219C676.903 118.219 670.989 117.139 670.989 111.623C670.989 106.164 676.903 98.317 682.362 98.317" fill="#379ECA"/>
<path d="M621.973 61.3555C621.973 56.6927 618.22 52.9397 613.557 52.9397C608.894 52.9397 605.141 56.6927 605.141 61.3555C605.141 66.0183 608.894 69.7713 613.557 69.7713C618.163 69.7713 621.973 66.0183 621.973 61.3555ZM620.324 61.3555C620.324 65.1085 617.253 68.1791 613.5 68.1791C609.747 68.1791 606.677 65.1085 606.677 61.3555C606.677 57.6025 609.747 54.5319 613.5 54.5319C617.31 54.5319 620.324 57.6025 620.324 61.3555Z" fill="#379ECA"/>
<path d="M616.514 61.3556C616.514 63.0046 615.206 64.3125 613.557 64.3125C611.908 64.3125 610.6 63.0046 610.6 61.3556C610.6 59.7065 611.908 58.3987 613.557 58.3987C615.206 58.3987 616.514 59.7065 616.514 61.3556Z" fill="#379ECA"/>
<path d="M616.685 61.3553C616.685 59.6494 615.263 58.2278 613.557 58.2278C611.851 58.2278 610.43 59.6494 610.43 61.3553C610.43 63.0612 611.851 64.4828 613.557 64.4828C615.263 64.4828 616.685 63.118 616.685 61.3553ZM616.344 61.3553C616.344 62.8906 615.093 64.1985 613.5 64.1985C611.908 64.1985 610.657 62.9475 610.657 61.3553C610.657 59.82 611.908 58.5121 613.5 58.5121C615.093 58.5121 616.344 59.82 616.344 61.3553Z" fill="#379ECA"/>
<path d="M601.047 32.1845C601.047 33.5492 599.967 34.6296 598.602 34.6296C597.238 34.6296 596.157 33.5492 596.157 32.1845C596.157 30.8198 597.238 29.7394 598.602 29.7394C599.967 29.7962 601.047 30.8766 601.047 32.1845Z" fill="#379ECA"/>
<path d="M651.03 22.5743C651.91 22.5743 652.623 21.8614 652.623 20.9821C652.623 20.1027 651.91 19.3899 651.03 19.3899C650.151 19.3899 649.438 20.1027 649.438 20.9821C649.438 21.8614 650.151 22.5743 651.03 22.5743Z" fill="#379ECA"/>
<path d="M627.716 97.8057C628.596 97.8057 629.309 97.0929 629.309 96.2135C629.309 95.3342 628.596 94.6213 627.716 94.6213C626.837 94.6213 626.124 95.3342 626.124 96.2135C626.124 97.0929 626.837 97.8057 627.716 97.8057Z" fill="#379ECA"/>
<path d="M704.368 81.7696L698.568 75.7989L692.768 81.7696L686.854 75.6852L687.082 75.5146L692.768 81.3147L698.568 75.4009L704.368 81.3147L710.168 75.4009L715.968 81.3147L721.712 75.4009L727.512 81.3147L733.312 75.4009L739.112 81.3147L744.912 75.4009L750.826 81.4284L750.598 81.6559L744.912 75.7989L739.112 81.7696L733.312 75.7989L727.512 81.7696L721.712 75.7989L715.968 81.7696L710.168 75.7989L704.368 81.7696Z" fill="#379ECA"/>
<path d="M782.328 71.8761H781.76V87.9685H782.328V71.8761Z" fill="#379ECA"/>
<path d="M791.54 76.8225L773.969 80.1775V79.6089L791.54 76.2539" fill="#379ECA"/>
<path d="M751.167 19.5044H750.883V27.8065H751.167V19.5044Z" fill="#379ECA"/>
<path d="M755.147 23.5411H746.845V23.8255H755.147V23.5411Z" fill="#379ECA"/>
<path d="M703.857 0L702.435 20.6983H719.778L721.2 0" fill="#379ECA"/>
<path d="M720.631 0.56897L719.21 20.13H703.004L704.425 0.56897" fill="#379ECA"/>
<path d="M744.457 131.071L742.979 117.083H725.692L727.114 131.071" fill="#379ECA"/>
<path d="M727.682 130.502L726.261 117.651H742.41L743.888 130.502" fill="#379ECA"/>
<path d="M759.608 106.034L756.833 103.259L754.059 106.034L756.833 108.808L759.608 106.034Z" fill="#379ECA"/>
<path d="M766.093 106.027L763.318 103.253L760.544 106.027L763.318 108.801L766.093 106.027Z" fill="#379ECA"/>
<path d="M772.578 106.019L769.804 103.245L767.029 106.019L769.804 108.794L772.578 106.019Z" fill="#379ECA"/>
<path d="M781.761 26.0505L784.535 23.2761L781.761 20.5018L778.986 23.2761L781.761 26.0505Z" fill="#379ECA"/>
<path d="M781.768 32.5495L784.542 29.7751L781.768 27.0008L778.993 29.7751L781.768 32.5495Z" fill="#379ECA"/>
<path d="M781.734 39.0086L784.509 36.2343L781.734 33.4599L778.96 36.2342L781.734 39.0086Z" fill="#379ECA"/>
<path d="M737.804 31.9578C737.179 31.9578 736.724 31.446 736.724 30.8774C736.724 30.2519 737.235 29.797 737.804 29.797C738.43 29.797 738.884 30.3088 738.884 30.8774C738.884 31.5029 738.373 31.9578 737.804 31.9578Z" fill="#379ECA"/>
<path d="M737.804 35.7106C738.401 35.7106 738.885 35.2269 738.885 34.6302C738.885 34.0335 738.401 33.5498 737.804 33.5498C737.207 33.5498 736.724 34.0335 736.724 34.6302C736.724 35.2269 737.207 35.7106 737.804 35.7106Z" fill="#379ECA"/>
<path d="M737.804 39.464C738.401 39.464 738.885 38.9803 738.885 38.3836C738.885 37.7869 738.401 37.3032 737.804 37.3032C737.207 37.3032 736.724 37.7869 736.724 38.3836C736.724 38.9803 737.207 39.464 737.804 39.464Z" fill="#379ECA"/>
<path d="M737.804 43.2167C738.401 43.2167 738.885 42.733 738.885 42.1363C738.885 41.5396 738.401 41.0559 737.804 41.0559C737.207 41.0559 736.724 41.5396 736.724 42.1363C736.724 42.733 737.207 43.2167 737.804 43.2167Z" fill="#379ECA"/>
<path d="M737.804 46.9701C738.401 46.9701 738.885 46.4864 738.885 45.8897C738.885 45.293 738.401 44.8093 737.804 44.8093C737.207 44.8093 736.724 45.293 736.724 45.8897C736.724 46.4864 737.207 46.9701 737.804 46.9701Z" fill="#379ECA"/>
<path d="M737.804 50.7227C738.401 50.7227 738.885 50.239 738.885 49.6423C738.885 49.0456 738.401 48.5619 737.804 48.5619C737.207 48.5619 736.724 49.0456 736.724 49.6423C736.724 50.239 737.207 50.7227 737.804 50.7227Z" fill="#379ECA"/>
<path d="M763.279 41.6244L749.461 57.0913H777.154L763.279 41.6244Z" fill="#379ECA"/>
<path d="M763.279 48.3914L749.063 64.2563H777.495L763.279 48.3914ZM763.279 48.9031L776.756 63.972H749.745L763.279 48.9031Z" fill="#379ECA"/>
<path d="M724.157 100.762L712.898 90.6407V110.827L724.157 100.762Z" fill="#379ECA"/>
<path d="M719.21 100.762L707.666 90.413V111.111L719.21 100.762ZM718.868 100.762L707.894 110.6V90.9247L718.868 100.762Z" fill="#379ECA"/>
<path d="M716.708 44.8652H694.929V23.0864H686.854V52.9398H716.708V44.8652ZM687.423 23.6551H694.36V45.4338H716.139V52.3711H687.423V23.6551Z" fill="#379ECA"/>
<path d="M776.869 90.4129H764.701V78.2441H760.151V94.962H776.869V90.4129ZM760.493 78.5853H764.359V90.7541H776.528V94.6208H760.493V78.5853Z" fill="#379ECA"/>
<path d="M682.362 120.551C689.129 120.551 693.166 118.39 693.166 111.623C693.166 104.856 689.129 95.9857 682.362 95.9857" fill="#379ECA"/>
<path d="M682.362 98.317C687.821 98.317 690.835 106.107 690.835 111.623C690.835 117.082 687.821 118.219 682.362 118.219" fill="#379ECA"/>
<path d="M796.089 95.9857C789.322 95.9857 782.385 104.856 782.385 111.623C782.385 118.39 789.322 120.551 796.089 120.551" fill="#379ECA"/>
<path d="M796.089 118.219C790.63 118.219 784.716 117.139 784.716 111.623C784.716 106.164 790.63 98.317 796.089 98.317" fill="#379ECA"/>
<path d="M735.7 61.3555C735.7 56.6927 731.947 52.9397 727.284 52.9397C722.622 52.9397 718.869 56.6927 718.869 61.3555C718.869 66.0183 722.622 69.7713 727.284 69.7713C731.89 69.7713 735.7 66.0183 735.7 61.3555ZM734.051 61.3555C734.051 65.1085 730.98 68.1791 727.227 68.1791C723.474 68.1791 720.404 65.1085 720.404 61.3555C720.404 57.6025 723.474 54.5319 727.227 54.5319C731.037 54.5319 734.051 57.6025 734.051 61.3555Z" fill="#379ECA"/>
<path d="M730.241 61.3556C730.241 63.0046 728.933 64.3125 727.284 64.3125C725.635 64.3125 724.327 63.0046 724.327 61.3556C724.327 59.7065 725.635 58.3987 727.284 58.3987C728.933 58.3987 730.241 59.7065 730.241 61.3556Z" fill="#379ECA"/>
<path d="M730.412 61.3553C730.412 59.6494 728.99 58.2278 727.284 58.2278C725.578 58.2278 724.157 59.6494 724.157 61.3553C724.157 63.0612 725.578 64.4828 727.284 64.4828C728.99 64.4828 730.412 63.118 730.412 61.3553ZM730.071 61.3553C730.071 62.8906 728.82 64.1985 727.227 64.1985C725.635 64.1985 724.384 62.9475 724.384 61.3553C724.384 59.82 725.635 58.5121 727.227 58.5121C728.82 58.5121 730.071 59.82 730.071 61.3553Z" fill="#379ECA"/>
<path d="M714.774 32.1845C714.774 33.5492 713.694 34.6296 712.329 34.6296C710.965 34.6296 709.884 33.5492 709.884 32.1845C709.884 30.8198 710.965 29.7394 712.329 29.7394C713.694 29.7962 714.774 30.8766 714.774 32.1845Z" fill="#379ECA"/>
<path d="M764.757 22.5743C765.637 22.5743 766.35 21.8614 766.35 20.9821C766.35 20.1027 765.637 19.3899 764.757 19.3899C763.878 19.3899 763.165 20.1027 763.165 20.9821C763.165 21.8614 763.878 22.5743 764.757 22.5743Z" fill="#379ECA"/>
<path d="M741.443 97.8057C742.323 97.8057 743.035 97.0929 743.035 96.2135C743.035 95.3342 742.323 94.6213 741.443 94.6213C740.564 94.6213 739.851 95.3342 739.851 96.2135C739.851 97.0929 740.564 97.8057 741.443 97.8057Z" fill="#379ECA"/>
<path d="M818.279 81.7696L812.479 75.7989L806.679 81.7696L800.765 75.6852L800.993 75.5146L806.679 81.3147L812.479 75.4009L818.279 81.3147L824.079 75.4009L829.879 81.3147L835.623 75.4009L841.423 81.3147L847.223 75.4009L853.023 81.3147L858.823 75.4009L864.737 81.4284L864.509 81.6559L858.823 75.7989L853.023 81.7696L847.223 75.7989L841.423 81.7696L835.623 75.7989L829.879 81.7696L824.079 75.7989L818.279 81.7696Z" fill="#379ECA"/>
<path d="M896.239 71.8761H895.67V87.9685H896.239V71.8761Z" fill="#379ECA"/>
<path d="M905.451 76.8225L887.88 80.1775V79.6089L905.451 76.2539" fill="#379ECA"/>
<path d="M865.078 19.5044H864.794V27.8065H865.078V19.5044Z" fill="#379ECA"/>
<path d="M869.058 23.5411H860.756V23.8255H869.058V23.5411Z" fill="#379ECA"/>
<path d="M817.767 0L816.346 20.6983H833.689L835.111 0" fill="#379ECA"/>
<path d="M834.542 0.56897L833.121 20.13H816.914L818.336 0.56897" fill="#379ECA"/>
<path d="M858.368 131.071L856.889 117.083H839.603L841.025 131.071" fill="#379ECA"/>
<path d="M841.593 130.502L840.172 117.651H856.321L857.799 130.502" fill="#379ECA"/>
<path d="M873.518 106.034L870.744 103.259L867.97 106.034L870.744 108.808L873.518 106.034Z" fill="#379ECA"/>
<path d="M880.004 106.027L877.229 103.253L874.455 106.027L877.229 108.801L880.004 106.027Z" fill="#379ECA"/>
<path d="M886.489 106.019L883.714 103.245L880.94 106.019L883.714 108.794L886.489 106.019Z" fill="#379ECA"/>
<path d="M895.671 26.0505L898.446 23.2761L895.671 20.5018L892.897 23.2761L895.671 26.0505Z" fill="#379ECA"/>
<path d="M895.678 32.5495L898.453 29.7751L895.678 27.0008L892.904 29.7751L895.678 32.5495Z" fill="#379ECA"/>
<path d="M895.645 39.0086L898.419 36.2343L895.645 33.4599L892.871 36.2342L895.645 39.0086Z" fill="#379ECA"/>
<path d="M851.715 31.9578C851.089 31.9578 850.635 31.446 850.635 30.8774C850.635 30.2519 851.146 29.797 851.715 29.797C852.34 29.797 852.795 30.3088 852.795 30.8774C852.795 31.5029 852.284 31.9578 851.715 31.9578Z" fill="#379ECA"/>
<path d="M851.715 35.7106C852.312 35.7106 852.795 35.2269 852.795 34.6302C852.795 34.0335 852.312 33.5498 851.715 33.5498C851.118 33.5498 850.635 34.0335 850.635 34.6302C850.635 35.2269 851.118 35.7106 851.715 35.7106Z" fill="#379ECA"/>
<path d="M851.715 39.464C852.312 39.464 852.795 38.9803 852.795 38.3836C852.795 37.7869 852.312 37.3032 851.715 37.3032C851.118 37.3032 850.635 37.7869 850.635 38.3836C850.635 38.9803 851.118 39.464 851.715 39.464Z" fill="#379ECA"/>
<path d="M851.715 43.2167C852.312 43.2167 852.795 42.733 852.795 42.1363C852.795 41.5396 852.312 41.0559 851.715 41.0559C851.118 41.0559 850.635 41.5396 850.635 42.1363C850.635 42.733 851.118 43.2167 851.715 43.2167Z" fill="#379ECA"/>
<path d="M851.715 46.9701C852.312 46.9701 852.795 46.4864 852.795 45.8897C852.795 45.293 852.312 44.8093 851.715 44.8093C851.118 44.8093 850.635 45.293 850.635 45.8897C850.635 46.4864 851.118 46.9701 851.715 46.9701Z" fill="#379ECA"/>
<path d="M851.715 50.7227C852.312 50.7227 852.795 50.239 852.795 49.6423C852.795 49.0456 852.312 48.5619 851.715 48.5619C851.118 48.5619 850.635 49.0456 850.635 49.6423C850.635 50.239 851.118 50.7227 851.715 50.7227Z" fill="#379ECA"/>
<path d="M877.19 41.6244L863.372 57.0913H891.065L877.19 41.6244Z" fill="#379ECA"/>
<path d="M877.19 48.3914L862.974 64.2563H891.406L877.19 48.3914ZM877.19 48.9031L890.666 63.972H863.656L877.19 48.9031Z" fill="#379ECA"/>
<path d="M838.068 100.762L826.809 90.6407V110.827L838.068 100.762Z" fill="#379ECA"/>
<path d="M833.121 100.762L821.577 90.413V111.111L833.121 100.762ZM832.779 100.762L821.805 110.6V90.9247L832.779 100.762Z" fill="#379ECA"/>
<path d="M830.619 44.8652H808.84V23.0864H800.765V52.9398H830.619V44.8652ZM801.334 23.6551H808.271V45.4338H830.05V52.3711H801.334V23.6551Z" fill="#379ECA"/>
<path d="M890.78 90.4129H878.611V78.2441H874.062V94.962H890.78V90.4129ZM874.403 78.5853H878.27V90.7541H890.439V94.6208H874.403V78.5853Z" fill="#379ECA"/>
<path d="M796.273 120.551C803.04 120.551 807.077 118.39 807.077 111.623C807.077 104.856 803.04 95.9857 796.273 95.9857" fill="#379ECA"/>
<path d="M796.273 98.317C801.732 98.317 804.746 106.107 804.746 111.623C804.746 117.082 801.732 118.219 796.273 118.219" fill="#379ECA"/>
<path d="M910 95.9857C903.233 95.9857 896.296 104.856 896.296 111.623C896.296 118.39 903.233 120.551 910 120.551" fill="#379ECA"/>
<path d="M910 118.219C904.541 118.219 898.627 117.139 898.627 111.623C898.627 106.164 904.541 98.317 910 98.317" fill="#379ECA"/>
<path d="M849.611 61.3555C849.611 56.6927 845.858 52.9397 841.195 52.9397C836.532 52.9397 832.779 56.6927 832.779 61.3555C832.779 66.0183 836.532 69.7713 841.195 69.7713C845.801 69.7713 849.611 66.0183 849.611 61.3555ZM847.962 61.3555C847.962 65.1085 844.891 68.1791 841.138 68.1791C837.385 68.1791 834.315 65.1085 834.315 61.3555C834.315 57.6025 837.385 54.5319 841.138 54.5319C844.948 54.5319 847.962 57.6025 847.962 61.3555Z" fill="#379ECA"/>
<path d="M844.152 61.3556C844.152 63.0046 842.844 64.3125 841.195 64.3125C839.546 64.3125 838.238 63.0046 838.238 61.3556C838.238 59.7065 839.546 58.3987 841.195 58.3987C842.844 58.3987 844.152 59.7065 844.152 61.3556Z" fill="#379ECA"/>
<path d="M844.323 61.3553C844.323 59.6494 842.901 58.2278 841.195 58.2278C839.489 58.2278 838.068 59.6494 838.068 61.3553C838.068 63.0612 839.489 64.4828 841.195 64.4828C842.901 64.4828 844.323 63.118 844.323 61.3553ZM843.981 61.3553C843.981 62.8906 842.73 64.1985 841.138 64.1985C839.546 64.1985 838.295 62.9475 838.295 61.3553C838.295 59.82 839.546 58.5121 841.138 58.5121C842.73 58.5121 843.981 59.82 843.981 61.3553Z" fill="#379ECA"/>
<path d="M828.685 32.1845C828.685 33.5492 827.605 34.6296 826.24 34.6296C824.875 34.6296 823.795 33.5492 823.795 32.1845C823.795 30.8198 824.875 29.7394 826.24 29.7394C827.605 29.7962 828.685 30.8766 828.685 32.1845Z" fill="#379ECA"/>
<path d="M878.668 22.5743C879.548 22.5743 880.26 21.8614 880.26 20.9821C880.26 20.1027 879.548 19.3899 878.668 19.3899C877.789 19.3899 877.076 20.1027 877.076 20.9821C877.076 21.8614 877.789 22.5743 878.668 22.5743Z" fill="#379ECA"/>
<path d="M855.354 97.8057C856.233 97.8057 856.946 97.0929 856.946 96.2135C856.946 95.3342 856.233 94.6213 855.354 94.6213C854.475 94.6213 853.762 95.3342 853.762 96.2135C853.762 97.0929 854.475 97.8057 855.354 97.8057Z" fill="#379ECA"/>
<path d="M932.006 81.7696L926.206 75.7989L920.406 81.7696L914.492 75.6852L914.72 75.5146L920.406 81.3147L926.206 75.4009L932.006 81.3147L937.806 75.4009L943.606 81.3147L949.35 75.4009L955.15 81.3147L960.95 75.4009L966.75 81.3147L972.55 75.4009L978.464 81.4284L978.236 81.6559L972.55 75.7989L966.75 81.7696L960.95 75.7989L955.15 81.7696L949.35 75.7989L943.606 81.7696L937.806 75.7989L932.006 81.7696Z" fill="#379ECA"/>
<path d="M1009.97 71.8761H1009.4V87.9685H1009.97V71.8761Z" fill="#379ECA"/>
<path d="M1019.18 76.8225L1001.61 80.1775V79.6089L1019.18 76.2539" fill="#379ECA"/>
<path d="M978.805 19.5044H978.521V27.8065H978.805V19.5044Z" fill="#379ECA"/>
<path d="M982.785 23.5411H974.483V23.8255H982.785V23.5411Z" fill="#379ECA"/>
<path d="M931.494 0L930.073 20.6983H947.416L948.838 0" fill="#379ECA"/>
<path d="M948.269 0.56897L946.848 20.13H930.641L932.063 0.56897" fill="#379ECA"/>
<path d="M972.095 131.071L970.616 117.083H953.33L954.752 131.071" fill="#379ECA"/>
<path d="M955.32 130.502L953.899 117.651H970.048L971.526 130.502" fill="#379ECA"/>
<path d="M987.245 106.034L984.471 103.259L981.697 106.034L984.471 108.808L987.245 106.034Z" fill="#379ECA"/>
<path d="M993.731 106.027L990.956 103.253L988.182 106.027L990.956 108.801L993.731 106.027Z" fill="#379ECA"/>
<path d="M1000.22 106.019L997.441 103.245L994.667 106.019L997.441 108.794L1000.22 106.019Z" fill="#379ECA"/>
<path d="M1009.4 26.0505L1012.17 23.2761L1009.4 20.5018L1006.62 23.2761L1009.4 26.0505Z" fill="#379ECA"/>
<path d="M1009.41 32.5495L1012.18 29.7751L1009.41 27.0008L1006.63 29.7751L1009.41 32.5495Z" fill="#379ECA"/>
<path d="M1009.37 39.0086L1012.15 36.2343L1009.37 33.4599L1006.6 36.2342L1009.37 39.0086Z" fill="#379ECA"/>
<path d="M965.442 31.9578C964.816 31.9578 964.362 31.446 964.362 30.8774C964.362 30.2519 964.873 29.797 965.442 29.797C966.067 29.797 966.522 30.3088 966.522 30.8774C966.522 31.5029 966.011 31.9578 965.442 31.9578Z" fill="#379ECA"/>
<path d="M965.442 35.7106C966.039 35.7106 966.522 35.2269 966.522 34.6302C966.522 34.0335 966.039 33.5498 965.442 33.5498C964.845 33.5498 964.362 34.0335 964.362 34.6302C964.362 35.2269 964.845 35.7106 965.442 35.7106Z" fill="#379ECA"/>
<path d="M965.442 39.464C966.039 39.464 966.522 38.9803 966.522 38.3836C966.522 37.7869 966.039 37.3032 965.442 37.3032C964.845 37.3032 964.362 37.7869 964.362 38.3836C964.362 38.9803 964.845 39.464 965.442 39.464Z" fill="#379ECA"/>
<path d="M965.442 43.2167C966.039 43.2167 966.522 42.733 966.522 42.1363C966.522 41.5396 966.039 41.0559 965.442 41.0559C964.845 41.0559 964.362 41.5396 964.362 42.1363C964.362 42.733 964.845 43.2167 965.442 43.2167Z" fill="#379ECA"/>
<path d="M965.442 46.9701C966.039 46.9701 966.522 46.4864 966.522 45.8897C966.522 45.293 966.039 44.8093 965.442 44.8093C964.845 44.8093 964.362 45.293 964.362 45.8897C964.362 46.4864 964.845 46.9701 965.442 46.9701Z" fill="#379ECA"/>
<path d="M965.442 50.7227C966.039 50.7227 966.522 50.239 966.522 49.6423C966.522 49.0456 966.039 48.5619 965.442 48.5619C964.845 48.5619 964.362 49.0456 964.362 49.6423C964.362 50.239 964.845 50.7227 965.442 50.7227Z" fill="#379ECA"/>
<path d="M990.917 41.6244L977.099 57.0913H1004.79L990.917 41.6244Z" fill="#379ECA"/>
<path d="M990.917 48.3914L976.701 64.2563H1005.13L990.917 48.3914ZM990.917 48.9031L1004.39 63.972H977.383L990.917 48.9031Z" fill="#379ECA"/>
<path d="M951.795 100.762L940.536 90.6407V110.827L951.795 100.762Z" fill="#379ECA"/>
<path d="M946.848 100.762L935.304 90.413V111.111L946.848 100.762ZM946.506 100.762L935.532 110.6V90.9247L946.506 100.762Z" fill="#379ECA"/>
<path d="M944.346 44.8652H922.567V23.0864H914.492V52.9398H944.346V44.8652ZM915.061 23.6551H921.998V45.4338H943.777V52.3711H915.061V23.6551Z" fill="#379ECA"/>
<path d="M1004.51 90.4129H992.338V78.2441H987.789V94.962H1004.51V90.4129ZM988.13 78.5853H991.997V90.7541H1004.17V94.6208H988.13V78.5853Z" fill="#379ECA"/>
<path d="M910 120.551C916.767 120.551 920.804 118.39 920.804 111.623C920.804 104.856 916.767 95.9857 910 95.9857" fill="#379ECA"/>
<path d="M910 98.317C915.459 98.317 918.473 106.107 918.473 111.623C918.473 117.082 915.459 118.219 910 118.219" fill="#379ECA"/>
<path d="M1023.73 95.9857C1016.96 95.9857 1010.02 104.856 1010.02 111.623C1010.02 118.39 1016.96 120.551 1023.73 120.551" fill="#379ECA"/>
<path d="M1023.73 118.219C1018.27 118.219 1012.35 117.139 1012.35 111.623C1012.35 106.164 1018.27 98.317 1023.73 98.317" fill="#379ECA"/>
<path d="M963.338 61.3555C963.338 56.6927 959.585 52.9397 954.922 52.9397C950.259 52.9397 946.506 56.6927 946.506 61.3555C946.506 66.0183 950.259 69.7713 954.922 69.7713C959.528 69.7713 963.338 66.0183 963.338 61.3555ZM961.689 61.3555C961.689 65.1085 958.618 68.1791 954.865 68.1791C951.112 68.1791 948.042 65.1085 948.042 61.3555C948.042 57.6025 951.112 54.5319 954.865 54.5319C958.675 54.5319 961.689 57.6025 961.689 61.3555Z" fill="#379ECA"/>
<path d="M957.879 61.3556C957.879 63.0046 956.571 64.3125 954.922 64.3125C953.273 64.3125 951.965 63.0046 951.965 61.3556C951.965 59.7065 953.273 58.3987 954.922 58.3987C956.571 58.3987 957.879 59.7065 957.879 61.3556Z" fill="#379ECA"/>
<path d="M958.05 61.3553C958.05 59.6494 956.628 58.2278 954.922 58.2278C953.216 58.2278 951.795 59.6494 951.795 61.3553C951.795 63.0612 953.216 64.4828 954.922 64.4828C956.628 64.4828 958.05 63.118 958.05 61.3553ZM957.708 61.3553C957.708 62.8906 956.457 64.1985 954.865 64.1985C953.273 64.1985 952.022 62.9475 952.022 61.3553C952.022 59.82 953.273 58.5121 954.865 58.5121C956.457 58.5121 957.708 59.82 957.708 61.3553Z" fill="#379ECA"/>
<path d="M942.412 32.1845C942.412 33.5492 941.332 34.6296 939.967 34.6296C938.602 34.6296 937.522 33.5492 937.522 32.1845C937.522 30.8198 938.602 29.7394 939.967 29.7394C941.332 29.7962 942.412 30.8766 942.412 32.1845Z" fill="#379ECA"/>
<path d="M992.395 22.5743C993.275 22.5743 993.987 21.8614 993.987 20.9821C993.987 20.1027 993.275 19.3899 992.395 19.3899C991.516 19.3899 990.803 20.1027 990.803 20.9821C990.803 21.8614 991.516 22.5743 992.395 22.5743Z" fill="#379ECA"/>
<path d="M969.081 97.8057C969.96 97.8057 970.673 97.0929 970.673 96.2135C970.673 95.3342 969.96 94.6213 969.081 94.6213C968.202 94.6213 967.489 95.3342 967.489 96.2135C967.489 97.0929 968.202 97.8057 969.081 97.8057Z" fill="#379ECA"/>
<path d="M1046.01 81.7696L1040.21 75.7989L1034.41 81.7696L1028.49 75.6852L1028.72 75.5146L1034.41 81.3147L1040.21 75.4009L1046.01 81.3147L1051.81 75.4009L1057.61 81.3147L1063.35 75.4009L1069.15 81.3147L1074.95 75.4009L1080.75 81.3147L1086.55 75.4009L1092.46 81.4284L1092.24 81.6559L1086.55 75.7989L1080.75 81.7696L1074.95 75.7989L1069.15 81.7696L1063.35 75.7989L1057.61 81.7696L1051.81 75.7989L1046.01 81.7696Z" fill="#379ECA"/>
<path d="M1123.97 71.8761H1123.4V87.9685H1123.97V71.8761Z" fill="#379ECA"/>
<path d="M1133.18 76.8225L1115.61 80.1775V79.6089L1133.18 76.2539" fill="#379ECA"/>
<path d="M1092.8 19.5044H1092.52V27.8065H1092.8V19.5044Z" fill="#379ECA"/>
<path d="M1096.79 23.5411H1088.48V23.8255H1096.79V23.5411Z" fill="#379ECA"/>
<path d="M1045.49 0L1044.07 20.6983H1061.42L1062.84 0" fill="#379ECA"/>
<path d="M1062.27 0.56897L1060.85 20.13H1044.64L1046.06 0.56897" fill="#379ECA"/>
<path d="M1086.09 131.071L1084.62 117.083H1067.33L1068.75 131.071" fill="#379ECA"/>
<path d="M1069.32 130.502L1067.9 117.651H1084.05L1085.53 130.502" fill="#379ECA"/>
<path d="M1101.25 106.034L1098.47 103.259L1095.7 106.034L1098.47 108.808L1101.25 106.034Z" fill="#379ECA"/>
<path d="M1107.73 106.027L1104.96 103.253L1102.18 106.027L1104.96 108.801L1107.73 106.027Z" fill="#379ECA"/>
<path d="M1114.22 106.019L1111.44 103.245L1108.67 106.019L1111.44 108.794L1114.22 106.019Z" fill="#379ECA"/>
<path d="M1123.4 26.0505L1126.17 23.2761L1123.4 20.5018L1120.62 23.2761L1123.4 26.0505Z" fill="#379ECA"/>
<path d="M1123.41 32.5495L1126.18 29.7751L1123.41 27.0008L1120.63 29.7751L1123.41 32.5495Z" fill="#379ECA"/>
<path d="M1123.37 39.0086L1126.15 36.2343L1123.37 33.4599L1120.6 36.2342L1123.37 39.0086Z" fill="#379ECA"/>
<path d="M1079.44 31.9578C1078.82 31.9578 1078.36 31.446 1078.36 30.8774C1078.36 30.2519 1078.87 29.797 1079.44 29.797C1080.07 29.797 1080.52 30.3088 1080.52 30.8774C1080.52 31.5029 1080.01 31.9578 1079.44 31.9578Z" fill="#379ECA"/>
<path d="M1079.44 35.7106C1080.04 35.7106 1080.52 35.2269 1080.52 34.6302C1080.52 34.0335 1080.04 33.5498 1079.44 33.5498C1078.85 33.5498 1078.36 34.0335 1078.36 34.6302C1078.36 35.2269 1078.85 35.7106 1079.44 35.7106Z" fill="#379ECA"/>
<path d="M1079.44 39.464C1080.04 39.464 1080.52 38.9803 1080.52 38.3836C1080.52 37.7869 1080.04 37.3032 1079.44 37.3032C1078.85 37.3032 1078.36 37.7869 1078.36 38.3836C1078.36 38.9803 1078.85 39.464 1079.44 39.464Z" fill="#379ECA"/>
<path d="M1079.44 43.2167C1080.04 43.2167 1080.52 42.733 1080.52 42.1363C1080.52 41.5396 1080.04 41.0559 1079.44 41.0559C1078.85 41.0559 1078.36 41.5396 1078.36 42.1363C1078.36 42.733 1078.85 43.2167 1079.44 43.2167Z" fill="#379ECA"/>
<path d="M1079.44 46.9701C1080.04 46.9701 1080.52 46.4864 1080.52 45.8897C1080.52 45.293 1080.04 44.8093 1079.44 44.8093C1078.85 44.8093 1078.36 45.293 1078.36 45.8897C1078.36 46.4864 1078.85 46.9701 1079.44 46.9701Z" fill="#379ECA"/>
<path d="M1079.44 50.7227C1080.04 50.7227 1080.52 50.239 1080.52 49.6423C1080.52 49.0456 1080.04 48.5619 1079.44 48.5619C1078.85 48.5619 1078.36 49.0456 1078.36 49.6423C1078.36 50.239 1078.85 50.7227 1079.44 50.7227Z" fill="#379ECA"/>
<path d="M1104.92 41.6244L1091.1 57.0913H1118.79L1104.92 41.6244Z" fill="#379ECA"/>
<path d="M1104.92 48.3914L1090.7 64.2563H1119.13L1104.92 48.3914ZM1104.92 48.9031L1118.39 63.972H1091.38L1104.92 48.9031Z" fill="#379ECA"/>
<path d="M1065.79 100.762L1054.54 90.6407V110.827L1065.79 100.762Z" fill="#379ECA"/>
<path d="M1060.85 100.762L1049.3 90.413V111.111L1060.85 100.762ZM1060.51 100.762L1049.53 110.6V90.9247L1060.51 100.762Z" fill="#379ECA"/>
<path d="M1058.35 44.8652H1036.57V23.0864H1028.49V52.9398H1058.35V44.8652ZM1029.06 23.6551H1036V45.4338H1057.78V52.3711H1029.06V23.6551Z" fill="#379ECA"/>
<path d="M1118.51 90.4129H1106.34V78.2441H1101.79V94.962H1118.51V90.4129ZM1102.13 78.5853H1106V90.7541H1118.17V94.6208H1102.13V78.5853Z" fill="#379ECA"/>
<path d="M1024 120.551C1030.77 120.551 1034.8 118.39 1034.8 111.623C1034.8 104.856 1030.77 95.9857 1024 95.9857" fill="#379ECA"/>
<path d="M1024 98.317C1029.46 98.317 1032.47 106.107 1032.47 111.623C1032.47 117.082 1029.46 118.219 1024 118.219" fill="#379ECA"/>
<path d="M1137.73 95.9857C1130.96 95.9857 1124.02 104.856 1124.02 111.623C1124.02 118.39 1130.96 120.551 1137.73 120.551" fill="#379ECA"/>
<path d="M1137.73 118.219C1132.27 118.219 1126.35 117.139 1126.35 111.623C1126.35 106.164 1132.27 98.317 1137.73 98.317" fill="#379ECA"/>
<path d="M1077.34 61.3555C1077.34 56.6927 1073.58 52.9397 1068.92 52.9397C1064.26 52.9397 1060.51 56.6927 1060.51 61.3555C1060.51 66.0183 1064.26 69.7713 1068.92 69.7713C1073.53 69.7713 1077.34 66.0183 1077.34 61.3555ZM1075.69 61.3555C1075.69 65.1085 1072.62 68.1791 1068.87 68.1791C1065.11 68.1791 1062.04 65.1085 1062.04 61.3555C1062.04 57.6025 1065.11 54.5319 1068.87 54.5319C1072.68 54.5319 1075.69 57.6025 1075.69 61.3555Z" fill="#379ECA"/>
<path d="M1071.88 61.3556C1071.88 63.0046 1070.57 64.3125 1068.92 64.3125C1067.27 64.3125 1065.97 63.0046 1065.97 61.3556C1065.97 59.7065 1067.27 58.3987 1068.92 58.3987C1070.57 58.3987 1071.88 59.7065 1071.88 61.3556Z" fill="#379ECA"/>
<path d="M1072.05 61.3553C1072.05 59.6494 1070.63 58.2278 1068.92 58.2278C1067.22 58.2278 1065.79 59.6494 1065.79 61.3553C1065.79 63.0612 1067.22 64.4828 1068.92 64.4828C1070.63 64.4828 1072.05 63.118 1072.05 61.3553ZM1071.71 61.3553C1071.71 62.8906 1070.46 64.1985 1068.87 64.1985C1067.27 64.1985 1066.02 62.9475 1066.02 61.3553C1066.02 59.82 1067.27 58.5121 1068.87 58.5121C1070.46 58.5121 1071.71 59.82 1071.71 61.3553Z" fill="#379ECA"/>
<path d="M1056.41 32.1845C1056.41 33.5492 1055.33 34.6296 1053.97 34.6296C1052.6 34.6296 1051.52 33.5492 1051.52 32.1845C1051.52 30.8198 1052.6 29.7394 1053.97 29.7394C1055.33 29.7962 1056.41 30.8766 1056.41 32.1845Z" fill="#379ECA"/>
<path d="M1106.4 22.5743C1107.27 22.5743 1107.99 21.8614 1107.99 20.9821C1107.99 20.1027 1107.27 19.3899 1106.4 19.3899C1105.52 19.3899 1104.8 20.1027 1104.8 20.9821C1104.8 21.8614 1105.52 22.5743 1106.4 22.5743Z" fill="#379ECA"/>
<path d="M1083.08 97.8057C1083.96 97.8057 1084.67 97.0929 1084.67 96.2135C1084.67 95.3342 1083.96 94.6213 1083.08 94.6213C1082.2 94.6213 1081.49 95.3342 1081.49 96.2135C1081.49 97.0929 1082.2 97.8057 1083.08 97.8057Z" fill="#379ECA"/>
</g>
</svg>
