<?xml version="1.0" encoding="UTF-8"?>
<svg xmlns="http://www.w3.org/2000/svg" xmlns:xlink="http://www.w3.org/1999/xlink" width="16px" height="10px" viewBox="0 0 16 10" version="1.1">
<g id="surface1">
<path style="fill:none;stroke-width:5;stroke-linecap:butt;stroke-linejoin:miter;stroke:rgb(12.54902%,54.509804%,93.333333%);stroke-opacity:1;stroke-miterlimit:4;" d="M 5.841192 18.005939 L 21.846043 18.001451 C 24.051194 17.999103 25.843475 19.791384 25.841127 21.996535 L 25.836639 38.001386 C 25.834291 40.206537 24.044427 41.996401 21.839276 41.998749 L 5.834425 42.003237 C 3.629274 42.005585 1.836993 40.213304 1.839341 38.008153 L 1.843829 22.003302 C 1.836164 19.788138 3.626028 17.998274 5.841192 18.005939 Z M 5.841192 18.005939 " transform="matrix(0.195064,-0.196419,0.195064,0.196419,-3.362653,1.825462)"/>
<path style="fill:none;stroke-width:5;stroke-linecap:butt;stroke-linejoin:miter;stroke:rgb(42.745098%,42.352941%,50.196078%);stroke-opacity:1;stroke-miterlimit:4;" d="M 26.84085 18.005587 L 42.845701 18.001098 C 45.050852 17.99875 46.843133 19.791031 46.840785 21.996182 L 46.836297 38.001033 C 46.833949 40.206185 45.044085 41.996049 42.838933 41.998397 L 26.834082 42.002885 C 24.628931 42.005233 22.83665 40.212952 22.838998 38.007801 L 22.843487 22.00295 C 22.835822 19.787786 24.625686 17.997922 26.84085 18.005587 Z M 26.84085 18.005587 " transform="matrix(0.195064,-0.196419,0.195064,0.196419,-1.665891,5.950253)"/>
<path style="fill:none;stroke-width:5;stroke-linecap:butt;stroke-linejoin:miter;stroke:rgb(12.54902%,54.509804%,93.333333%);stroke-opacity:1;stroke-miterlimit:4;" d="M 15.802734 4.035937 L 4.672852 15.173437 C 3.101074 16.734375 3.101074 19.265625 4.672852 20.826562 L 15.986816 32.146875 C 17.544434 33.707812 20.079102 33.707812 21.636719 32.146875 L 32.780762 20.995312 " transform="matrix(0.275862,0,0,0.277778,0,0)"/>
</g>
</svg>
