<svg width="42" height="42" viewBox="0 0 42 42" fill="none" xmlns="http://www.w3.org/2000/svg">
<circle cx="21" cy="21" r="21" fill="#208BEE"/>
<path d="M18 19C19.1046 19 20 18.1046 20 17C20 15.8954 19.1046 15 18 15C16.8954 15 16 15.8954 16 17C16 18.1046 16.8954 19 18 19Z" stroke="white" stroke-width="1.5" stroke-linecap="round" stroke-linejoin="round"/>
<path d="M22 11H18C13 11 11 13 11 18V24C11 29 13 31 18 31H24C29 31 31 29 31 24V19" stroke="white" stroke-width="1.5" stroke-linecap="round" stroke-linejoin="round"/>
<path d="M24.75 14H30.25" stroke="white" stroke-width="1.5" stroke-linecap="round"/>
<path d="M27.5 16.75V11.25" stroke="white" stroke-width="1.5" stroke-linecap="round"/>
<path d="M11.6699 27.95L16.5999 24.64C17.3899 24.11 18.5299 24.17 19.2399 24.78L19.5699 25.07C20.3499 25.74 21.6099 25.74 22.3899 25.07L26.5499 21.5C27.3299 20.83 28.5899 20.83 29.3699 21.5L30.9999 22.9" stroke="white" stroke-width="1.5" stroke-linecap="round" stroke-linejoin="round"/>
</svg>
