<svg width="24" height="24" viewBox="0 0 24 24" fill="none" xmlns="http://www.w3.org/2000/svg">
<path d="M9.57043 18.8201C9.38043 18.8201 9.19043 18.7501 9.04043 18.6001L2.97043 12.5301C2.68043 12.2401 2.68043 11.7601 2.97043 11.4701L9.04043 5.40012C9.33043 5.11012 9.81043 5.11012 10.1004 5.40012C10.3904 5.69012 10.3904 6.17012 10.1004 6.46012L4.56043 12.0001L10.1004 17.5401C10.3904 17.8301 10.3904 18.3101 10.1004 18.6001C9.96043 18.7501 9.76043 18.8201 9.57043 18.8201Z" fill="#292D32"/>
<path d="M20.5 12.75H3.67C3.26 12.75 2.92 12.41 2.92 12C2.92 11.59 3.26 11.25 3.67 11.25H20.5C20.91 11.25 21.25 11.59 21.25 12C21.25 12.41 20.91 12.75 20.5 12.75Z" fill="#292D32"/>
</svg>
