<svg width="20" height="20" viewBox="0 0 20 20" fill="none" xmlns="http://www.w3.org/2000/svg">
<g opacity="0.5">
<path d="M16.6668 5.83341V14.1667C16.6668 17.5001 15.8335 18.3334 12.5002 18.3334H7.50016C4.16683 18.3334 3.3335 17.5001 3.3335 14.1667V5.83341C3.3335 2.50008 4.16683 1.66675 7.50016 1.66675H12.5002C15.8335 1.66675 16.6668 2.50008 16.6668 5.83341Z" stroke="#292D32" stroke-width="1.5" stroke-linecap="round" stroke-linejoin="round"/>
<path d="M11.6668 4.5835H8.3335" stroke="#292D32" stroke-width="1.5" stroke-linecap="round" stroke-linejoin="round"/>
<path d="M10.0002 15.9168C10.7135 15.9168 11.2918 15.3385 11.2918 14.6252C11.2918 13.9118 10.7135 13.3335 10.0002 13.3335C9.28679 13.3335 8.7085 13.9118 8.7085 14.6252C8.7085 15.3385 9.28679 15.9168 10.0002 15.9168Z" stroke="#292D32" stroke-width="1.5" stroke-linecap="round" stroke-linejoin="round"/>
</g>
</svg>
