<svg width="42" height="42" viewBox="0 0 42 42" fill="none" xmlns="http://www.w3.org/2000/svg">
<circle cx="21" cy="21" r="21" fill="#208BEE"/>
<path d="M13.4048 24.5264L17.9348 29.0564C19.7948 30.9164 22.8148 30.9164 24.6848 29.0564L29.0748 24.6664C30.9348 22.8064 30.9348 19.7864 29.0748 17.9164L24.5348 13.3964C23.5848 12.4464 22.2748 11.9364 20.9348 12.0064L15.9348 12.2464C13.9348 12.3364 12.3448 13.9264 12.2448 15.9164L12.0048 20.9164C11.9448 22.2664 12.4548 23.5764 13.4048 24.5264Z" stroke="white" stroke-width="1.5" stroke-linecap="round" stroke-linejoin="round"/>
<path d="M18.7349 21.2264C20.1156 21.2264 21.2349 20.1071 21.2349 18.7264C21.2349 17.3457 20.1156 16.2264 18.7349 16.2264C17.3542 16.2264 16.2349 17.3457 16.2349 18.7264C16.2349 20.1071 17.3542 21.2264 18.7349 21.2264Z" stroke="white" stroke-width="1.5" stroke-linecap="round"/>
<path d="M22.2349 26.2264L26.2349 22.2264" stroke="white" stroke-width="1.5" stroke-miterlimit="10" stroke-linecap="round" stroke-linejoin="round"/>
</svg>
